<svg id="Capa_1" enable-background="new 0 0 512 512" height="512" viewBox="0 0 512 512" width="512" xmlns="http://www.w3.org/2000/svg"><g><path d="m512 291.112c0-10.724-8.724-19.448-19.447-19.448h-5.496c-14.043-35.4-48.68-59.045-86.887-59.045-.645 0-1.295.007-1.948.021-3.083-15.117-10.6-29.188-21.585-40.203-2.925-2.933-7.674-2.94-10.606-.015-2.933 2.925-2.939 7.674-.015 10.606 10.285 10.313 16.82 23.921 18.402 38.315.447 4.077 4.083 7.041 8.171 6.646 2.576-.247 5.127-.372 7.581-.372 30.043 0 57.458 17.417 70.5 44.045h-329.222c-4.142 0-7.5 3.358-7.5 7.5s3.358 7.5 7.5 7.5h351.104c2.452 0 4.447 1.995 4.447 4.448v11.144h-23.884c-7.43 0-13.474 6.044-13.474 13.474v19.026c0 7.43 6.044 13.474 13.474 13.474h23.885v11.144c0 2.453-1.995 4.448-4.447 4.448h-473.105c-2.453 0-4.448-1.995-4.448-4.448v-11.142h23.884c7.43 0 13.474-6.044 13.474-13.474v-19.026c0-7.429-6.044-13.474-13.474-13.474h-23.884v-11.144c0-2.453 1.995-4.448 4.448-4.448h89.34c4.142 0 7.5-3.358 7.5-7.5s-3.358-7.5-7.5-7.5h-69.447c8.155-20.991 25.127-37.708 46.513-45.442 2.828-1.022 4.771-3.635 4.938-6.638 1.886-34.047 30.1-60.717 64.23-60.717 7.164 0 14.231 1.187 21.007 3.527 3.638 1.255 7.635-.444 9.252-3.934 8.18-17.641 26.015-29.04 45.437-29.04 22.889 0 42.834 15.463 48.504 37.603.572 2.235 2.142 4.082 4.254 5.008 2.113.927 4.534.829 6.566-.265 9.296-5.003 19.821-7.647 30.439-7.647 7.077 0 14.03 1.141 20.666 3.392 3.924 1.332 8.182-.771 9.512-4.694s-.771-8.181-4.693-9.511c-8.191-2.778-16.766-4.187-25.484-4.187-10.125 0-20.186 1.952-29.533 5.694-9.871-24.168-33.508-40.393-60.23-40.393-23.043 0-44.366 12.343-55.991 31.932-6.431-1.651-13.034-2.485-19.705-2.485-40.447 0-74.156 30.38-78.789 70.018-25.103 10.591-44.509 31.785-52.792 57.778h-3.993c-10.725.001-19.449 8.725-19.449 19.449v68.262c0 4.506 1.554 8.647 4.135 11.948-2.581 3.3-4.135 7.441-4.135 11.947v68.262c0 10.724 8.724 19.448 19.448 19.448h287.944c4.143 0 7.5-3.358 7.5-7.5s-3.357-7.5-7.5-7.5h-287.944c-2.453 0-4.448-1.995-4.448-4.448v-11.144h23.884c7.43 0 13.474-6.044 13.474-13.474v-19.026c0-7.429-6.044-13.474-13.474-13.474h-23.884v-11.144c0-2.453 1.995-4.448 4.448-4.448h473.105c2.452 0 4.447 1.995 4.447 4.448v11.144h-23.884c-7.43 0-13.474 6.044-13.474 13.474v19.026c0 7.43 6.044 13.474 13.474 13.474h23.884v11.144c0 2.453-1.995 4.448-4.447 4.448h-152.501c-4.143 0-7.5 3.358-7.5 7.5s3.357 7.5 7.5 7.5h152.501c10.724 0 19.447-8.724 19.447-19.448v-68.262c0-4.506-1.554-8.647-4.135-11.948 2.581-3.301 4.135-7.442 4.135-11.948zm-37.357 42.118v-15.974h22.357v15.974zm-437.285-15.974v15.974h-22.358v-15.974zm0 92.157v15.974h-22.358v-15.974zm437.285 15.974v-15.974h22.357v15.974z"/><path d="m174.727 181.765c-13.196 0-25.748 5.716-34.435 15.683-2.722 3.122-2.396 7.86.726 10.582 3.121 2.721 7.86 2.397 10.582-.726 5.838-6.697 14.267-10.539 23.127-10.539s17.29 3.841 23.127 10.539c1.483 1.702 3.564 2.572 5.657 2.572 1.748 0 3.504-.608 4.925-1.846 3.123-2.722 3.448-7.459.726-10.582-8.687-9.967-21.238-15.683-34.435-15.683z"/><path d="m315.766 241.336c-3.373 2.404-4.159 7.087-1.755 10.46 2.402 3.374 7.087 4.16 10.46 1.755 5.213-3.715 11.349-5.679 17.743-5.679 6.396 0 12.531 1.963 17.742 5.678 1.32.941 2.841 1.393 4.347 1.393 2.343 0 4.651-1.094 6.114-3.147 2.404-3.373 1.619-8.056-1.754-10.46-7.769-5.537-16.914-8.463-26.449-8.463-9.533 0-18.68 2.926-26.448 8.463z"/><path d="m265.04 195.82c0-4.142-3.357-7.5-7.5-7.5h-8.446c-4.142 0-7.5 3.358-7.5 7.5s3.358 7.5 7.5 7.5h8.446c4.143 0 7.5-3.358 7.5-7.5z"/><path d="m284.674 211.128c-4.143 0-7.5 3.358-7.5 7.5s3.357 7.5 7.5 7.5h8.447c4.143 0 7.5-3.358 7.5-7.5s-3.357-7.5-7.5-7.5z"/><path d="m220.795 232.873c-4.142 0-7.5 3.358-7.5 7.5s3.358 7.5 7.5 7.5h23.919c4.142 0 7.5-3.358 7.5-7.5s-3.358-7.5-7.5-7.5z"/><path d="m113.772 242.296c-4.142 0-7.5 3.358-7.5 7.5s3.358 7.5 7.5 7.5h8.446c4.142 0 7.5-3.358 7.5-7.5s-3.358-7.5-7.5-7.5z"/><path d="m284.649 56.125c4.143 0 7.5-3.358 7.5-7.5v-.104c0-4.142-3.357-7.5-7.5-7.5s-7.5 3.358-7.5 7.5v.104c0 4.142 3.358 7.5 7.5 7.5z"/><path d="m128.998 85.209c23.538 6.473 65.267 10.337 111.624 10.337 34.193 0 66.398-2.128 90.684-5.993 30.417-4.84 43.396-11.315 43.396-21.649 0-9.46-10.876-13.896-20.352-16.705-9.914-2.938-24.133-5.477-41.119-7.342-4.122-.451-7.822 2.52-8.273 6.637-.452 4.117 2.52 7.822 6.637 8.273 27.374 3.005 39.699 6.803 45.011 9.134-4.514 1.975-14.096 5.009-33.711 7.739-22.723 3.163-51.94 4.905-82.272 4.905-44.417 0-85.664-3.755-107.646-9.8-3.995-1.1-8.123 1.249-9.22 5.243-1.1 3.995 1.247 8.123 5.241 9.221z"/><path d="m365.39 116.184v.104c0 4.142 3.357 7.5 7.5 7.5s7.5-3.358 7.5-7.5v-.104c0-4.142-3.357-7.5-7.5-7.5s-7.5 3.358-7.5 7.5z"/><path d="m78.729 154.851c4.142 0 7.5-3.358 7.5-7.5v-.103c0-4.142-3.358-7.5-7.5-7.5s-7.5 3.358-7.5 7.5v.103c0 4.142 3.358 7.5 7.5 7.5z"/><path d="m437.399 141.908c4.143 0 7.5-3.358 7.5-7.5v-.104c0-4.142-3.357-7.5-7.5-7.5s-7.5 3.358-7.5 7.5v.104c0 4.142 3.358 7.5 7.5 7.5z"/><path d="m408.406 161.478c4.143 0 7.5-3.358 7.5-7.5v-.104c0-4.142-3.357-7.5-7.5-7.5s-7.5 3.358-7.5 7.5v.104c0 4.142 3.358 7.5 7.5 7.5z"/></g></svg>