<?xml version="1.0" encoding="iso-8859-1"?>
<!-- Generator: Adobe Illustrator 19.0.0, SVG Export Plug-In . SVG Version: 6.00 Build 0)  -->
<svg version="1.1" id="Capa_1" xmlns="http://www.w3.org/2000/svg" xmlns:xlink="http://www.w3.org/1999/xlink" x="0px" y="0px"
	 viewBox="0 0 480 480" style="enable-background:new 0 0 480 480;" xml:space="preserve">
<g>
	<g>
		<path d="M80,332c-13.255,0-24,10.745-24,24s10.745,24,24,24s24-10.745,24-24S93.255,332,80,332z M80,364c-4.418,0-8-3.582-8-8
			s3.582-8,8-8s8,3.582,8,8S84.418,364,80,364z"/>
	</g>
</g>
<g>
	<g>
		<path d="M192,332c-13.255,0-24,10.745-24,24s10.745,24,24,24s24-10.745,24-24S205.255,332,192,332z M192,364c-4.418,0-8-3.582-8-8
			s3.582-8,8-8s8,3.582,8,8S196.418,364,192,364z"/>
	</g>
</g>
<g>
	<g>
		<path d="M400,332c-13.255,0-24,10.745-24,24s10.745,24,24,24s24-10.745,24-24S413.255,332,400,332z M400,364c-4.418,0-8-3.582-8-8
			s3.582-8,8-8s8,3.582,8,8S404.418,364,400,364z"/>
	</g>
</g>
<g>
	<g>
		<path d="M477.656,174.344l-32-32c-1.5-1.5-3.534-2.344-5.656-2.344h-8v-24c0-4.418-3.582-8-8-8h-64c-4.418,0-8,3.582-8,8v24h-32
			V84c0-4.418-3.582-8-8-8H80c-2.267,0.001-4.427,0.963-5.944,2.648l-72,80C0.733,160.117,0.001,162.023,0,164v192
			c0,4.418,3.582,8,8,8h24.72c4.392,26.112,29.12,43.72,55.232,39.328c20.151-3.389,35.939-19.177,39.328-39.328h17.44
			c4.392,26.112,29.12,43.72,55.232,39.328c20.151-3.389,35.939-19.177,39.328-39.328h113.44
			c4.392,26.112,29.12,43.72,55.232,39.328c20.151-3.389,35.939-19.177,39.328-39.328H472c4.418,0,8-3.582,8-8V180
			C480,177.878,479.156,175.844,477.656,174.344z M80,388c-17.673,0-32-14.327-32-32c0-17.673,14.327-32,32-32s32,14.327,32,32
			C112,373.673,97.673,388,80,388z M192,388c-17.673,0-32-14.327-32-32c0-17.673,14.327-32,32-32s32,14.327,32,32
			C224,373.673,209.673,388,192,388z M304,348h-64.72c-4.392-26.112-29.12-43.72-55.232-39.328
			c-20.151,3.389-35.939,19.177-39.328,39.328h-17.44c-4.392-26.112-29.12-43.72-55.232-39.328
			C51.897,312.061,36.109,327.849,32.72,348H16v-48h288V348z M304,284H16V167.072L83.56,92H304V284z M368,124h48v16h-48V124z
			 M400,388c-17.673,0-32-14.327-32-32c0-17.673,14.327-32,32-32c17.673,0,32,14.327,32,32C432,373.673,417.673,388,400,388z
			 M464,348h-16.72c-4.392-26.112-29.12-43.72-55.232-39.328c-20.151,3.389-35.939,19.177-39.328,39.328H320v-48h120v8
			c0,4.418,3.582,8,8,8h16V348z M464,300h-8v-24h8V300z M464,260h-16c-4.418,0-8,3.582-8,8v16H320V156h116.688L464,183.312V260z"/>
	</g>
</g>
<g>
	<g>
		<path d="M208,132h-24v-16c0-4.418-3.582-8-8-8h-32c-4.418,0-8,3.582-8,8v16h-24c-4.418,0-8,3.582-8,8v32c0,4.418,3.582,8,8,8v80
			c0,4.418,3.582,8,8,8h80c4.418,0,8-3.582,8-8v-80c4.418,0,8-3.582,8-8v-32C216,135.582,212.418,132,208,132z M152,124h16v8h-16
			V124z M192,252h-64v-72h64V252z M200,164h-80v-16h80V164z"/>
	</g>
</g>
<g>
	<g>
		<path d="M445.656,190.344l-16-16c-1.5-1.5-3.534-2.344-5.656-2.344h-80c-4.418,0-8,3.582-8,8v56c0,4.418,3.582,8,8,8h96
			c4.418,0,8-3.582,8-8v-40C448,193.878,447.156,191.844,445.656,190.344z M432,228h-80v-40h68.688L432,199.312V228z"/>
	</g>
</g>
<g>
	<g>
		<path d="M360,260h-16c-4.418,0-8,3.582-8,8s3.582,8,8,8h16c4.418,0,8-3.582,8-8S364.418,260,360,260z"/>
	</g>
</g>
<g>
</g>
<g>
</g>
<g>
</g>
<g>
</g>
<g>
</g>
<g>
</g>
<g>
</g>
<g>
</g>
<g>
</g>
<g>
</g>
<g>
</g>
<g>
</g>
<g>
</g>
<g>
</g>
<g>
</g>
</svg>
