<?xml version="1.0" encoding="UTF-8"?>
<svg xmlns="http://www.w3.org/2000/svg" id="Layer_1" data-name="Layer 1" viewBox="0 0 512 512" width="512" height="512"><path d="M116,267.833a6,6,0,0,0,6-6v-4.3a6,6,0,0,0-12,0v4.3A6,6,0,0,0,116,267.833Z"/><path d="M116,344.833a6,6,0,0,0,6-6v-56a6,6,0,0,0-12,0v56A6,6,0,0,0,116,344.833Z"/><path d="M336.24,279.68a26.16,26.16,0,0,0-52.32,0,6,6,0,0,0,12,0,14.16,14.16,0,0,1,28.32,0,6,6,0,1,0,12,0Z"/><path d="M222.72,285.68a6,6,0,0,0,6-6,26.161,26.161,0,0,0-52.321,0,6,6,0,0,0,12,0,14.161,14.161,0,0,1,28.321,0A6,6,0,0,0,222.72,285.68Z"/><path d="M285.687,350.96a41.531,41.531,0,0,1-58.733,0,6,6,0,0,0-8.486,8.485,53.529,53.529,0,0,0,75.7,0,6,6,0,1,0-8.484-8.485Z"/><path d="M154.666,181.565a6,6,0,0,0,1.695-.245c5.575-1.638,11.125-3.469,16.5-5.44a6,6,0,1,0-4.132-11.265c-5.126,1.881-10.425,3.628-15.748,5.193a6,6,0,0,0,1.689,11.757Z"/><path d="M119.639,387h20.448a6.039,6.039,0,0,0,5.642-4.458A122.895,122.895,0,0,0,310.138,439.41a89.553,89.553,0,0,0,75.691-.433A40.422,40.422,0,0,1,345.493,476H300v-7.673A6.59,6.59,0,0,0,293.654,462h-32.3a20,20,0,0,0,.011,40h32.286A6.305,6.305,0,0,0,300,496v-8h45.493A52.479,52.479,0,0,0,398,435.291v-3.332a90.038,90.038,0,0,0,11.564-9.409A88.906,88.906,0,0,0,436.782,362.8,53.914,53.914,0,0,0,446,332.579V283.247c0-18.73-9-35.265-24-44.986V176.425C422,84.658,347.767,10,256,10S90,84.658,90,176.425v61.834c-15,9.721-24,26.256-24,44.986v49.332C66,362.423,89.792,387,119.639,387ZM288,490H261.368a7.843,7.843,0,0,1-7.833-7.836,8.169,8.169,0,0,1,2.291-5.7A7.94,7.94,0,0,1,261.36,474H288ZM140.045,229H132V187.213C132,114.3,191.57,54.972,264.488,54.972a134.263,134.263,0,0,1,19.841,1.472,5.815,5.815,0,0,0-1.239,1.965C266.317,99.51,237.035,131.2,196,152.59a6.006,6.006,0,0,0,5.574,10.641c43.624-22.742,74.81-56.484,92.687-100.288a5.979,5.979,0,0,0-.054-4.655c58.744,13.428,102.731,66.1,102.77,128.843L397,229.216c-1.531-.141-3.083-.216-4.637-.216H371.913A6.03,6.03,0,0,0,366,235.119v8.52c-40.163-18.146-65.4-55.3-76.248-74.373a189.285,189.285,0,0,0,34.571-55.6,6,6,0,1,0-11.142-4.456c-14.274,35.688-40.263,66.063-77.246,90.281-25.53,16.718-55.756,30.253-89.935,40.29v-4.663A6.066,6.066,0,0,0,140.045,229ZM256.319,439.824a110.88,110.88,0,0,1-110.264-99.259l-.055.006V252.263c36.694-10.459,69.152-24.817,96.509-42.731a241.817,241.817,0,0,0,38.656-31.164c12.91,21.832,40.873,60.525,84.835,78.318v88.691l-.021,0a110.894,110.894,0,0,1-109.66,94.45ZM386,425.357a77.673,77.673,0,0,1-62.456,6.45,123.053,123.053,0,0,0,43-48.532A5.954,5.954,0,0,0,371.913,387H386Zm15.235-11.446c-1.052,1.015-2.135,1.986-3.235,2.934v-30.48a53.6,53.6,0,0,0,24.559-9.188A77.034,77.034,0,0,1,401.235,413.911ZM434,283.247v49.332C434,355.808,415.591,375,392.361,375H378V241h14.361C415.591,241,434,260.017,434,283.247ZM102,176.425C102,91.275,170.85,22,256,22S410,91.275,410,176.425v55.8c-.323-.13-.667-.247-1-.37l-.023-44.734c-.048-79.486-65-144.153-144.489-144.153C184.953,42.972,120,107.678,120,187.213V229h-.171A49.8,49.8,0,0,0,102,232.227ZM78,283.245A41.812,41.812,0,0,1,119.636,241H134V375H119.639C96.409,375,78,355.806,78,332.577Z"/></svg>
